<svg version="1" xmlns="http://www.w3.org/2000/svg" width="400" height="400" viewBox="0 0 300.000000 300.000000"><path d="M125.6 15.6c-48.7 9.1-89.3 44.6-105.1 91.7-4.6 13.7-6.5 26.4-6.5 43.2 0 16 1.7 28.2 5.7 40.5l2.8 8.5h255.9l2.9-8.9c7.7-24.5 7.6-57.8-.5-82-13.5-40.8-44.5-72.9-83.8-87-15.8-5.7-22.1-6.8-43.5-7.2-14.9-.2-22 0-27.9 1.2zm45.6 47.3c13.2 5.1 20.4 12.9 21.5 23.2 1.1 10.7-4.4 20.7-13.6 25.1-5.1 2.3-6.7 4.8-3.2 4.8 1.1 0 4.8 1.9 8.2 4.2 5.1 3.5 7 5.4 9.4 10.2 2.6 5.1 3 7.1 3 13.5 0 18.5-13.2 30.7-36.8 34-8.7 1.2-32.4 1.4-43 .4l-6.9-.6.3-57.4c.2-36.9.6-57.6 1.3-58 2.3-1.4 14.4-2.1 33.6-1.9 18.5.2 21.1.5 26.2 2.5z"/><path d="M136.7 78.7c-.4.3-.7 7.1-.7 15.1v14.5l9.1-.6c14.9-1 22.2-6.1 22.2-15.4 0-5.5-2.4-9-8.3-12.1-3.6-1.8-6.1-2.2-13-2.2-4.8 0-9 .3-9.3.7zM136.8 125.6c-.5.4-.8 8.3-.8 17.5V160l2.6.6c5.3 1.3 17.3-.4 22.6-3.3 12.9-7 11.5-23.9-2.5-29.8-4.1-1.7-20.8-3.2-21.9-1.9zM25 205.3c0 .9 5.5 11.6 7.2 14l1.9 2.7 116.7-.2 116.7-.3 4.2-7.9c2.4-4.4 4.3-8.1 4.3-8.3 0-.2-56.5-.3-125.5-.3s-125.5.1-125.5.3zM38.6 229.2c.4.7 3 4.1 5.7 7.5l5 6.3h202.2l5.3-6.6c2.8-3.6 5.2-7 5.2-7.5s-45.6-.9-112.1-.9c-89.3 0-111.9.3-111.3 1.2zM59.2 251.9c.2.5 3.5 3.4 7.3 6.5l7 5.6h153.6l7.5-5.7c4.1-3.2 7.4-6.1 7.4-6.5 0-.4-41.2-.8-91.6-.8-55.3 0-91.4.4-91.2.9zM95 274.9c0 1 .8 1.4 11.9 5.2 13.9 4.8 22.3 5.9 43.5 5.9 19.2 0 26.6-.7 36.1-3.6 10.5-3.2 19.5-6.6 19.5-7.5 0-.5-23.3-.9-55.5-.9-31.9 0-55.5.4-55.5.9z"/></svg>